<svg width="1169" height="630" viewBox="0 0 1169 630" fill="none" xmlns="http://www.w3.org/2000/svg">
<g opacity="0.9">
<path d="M4 0H139.073V106.263H49.6264V152.525H123.69V258.788H49.6264V310.672H144.616V416.927H4V0Z" fill="white"/>
<path d="M162.864 0H208.478V310.672H293.827V416.927H162.864V0Z" fill="white"/>
<path d="M308.488 0H443.561V106.263H354.102V152.525H428.178V258.788H354.102V310.672H449.104V416.927H308.488V0Z" fill="white"/>
<path d="M467.364 0H512.978V156.895L559.539 0H621.433L571.833 148.749L624.609 416.927H566.813L533.904 241.911L512.966 311.28V416.927H467.364V0Z" fill="white"/>
<path d="M674.869 106.263H629.43V0H766.446V106.263H720.496V416.927H674.869V106.263Z" fill="white"/>
<path d="M779.886 0H868.324C895.528 0 903.388 5.00599 910.674 25.6307C918.011 45.6546 921.947 78.7585 921.947 120.029C921.947 153.784 919.456 182.54 915.146 199.41C911.409 213.784 907.274 220.042 898.517 226.914C916.404 245.043 918.372 257.544 919.443 364.436C919.805 396.317 919.979 401.316 922.67 416.942H874.888C874.166 400.064 873.991 395.066 873.456 361.933C872.559 275.043 870.765 267.534 851.446 267.534H825.5V416.927H779.886V0ZM855.743 179.4C863.217 179.4 866.48 177.527 868.623 172.528C871.488 165.648 873.269 153.148 873.269 137.522C873.269 107.486 869.159 97.5167 856.105 97.5167H825.5V179.4H855.743Z" fill="white"/>
<path d="M942.325 0H987.939V416.927H942.325V0Z" fill="white"/>
<path d="M1011.69 0H1057.32V156.895L1103.87 0H1165.77L1116.21 148.749L1169 416.927H1111.2L1078.28 241.911L1057.36 311.28V416.927H1011.69V0Z" fill="white"/>
</g>
<path fill-rule="evenodd" clip-rule="evenodd" d="M0 455.282H246.999V506.518H94.3457V516.521H228.019V564.304H94.3457V576.28H253.739V629.983H0V455.282ZM10 465.282V619.983H243.739V586.28H84.3457V554.304H218.019V526.521H84.3457V496.518H236.999V465.282H10Z" fill="white"/>
<path fill-rule="evenodd" clip-rule="evenodd" d="M286.77 455.282H533.739V506.518H381.027V516.521H514.7V564.304H381.027V576.28H540.494V629.983H286.77V455.282ZM296.77 465.282V619.983H530.494V586.28H371.027V554.304H504.7V526.521H371.027V496.518H523.739V465.282H296.77Z" fill="white"/>
<path fill-rule="evenodd" clip-rule="evenodd" d="M573.539 455.282H670.753V576.28H796V629.983H573.539V455.282ZM583.539 465.282V619.983H786V586.28H660.753V465.282H583.539Z" fill="white"/>
</svg>
