<svg width="1169" height="632" viewBox="0 0 1169 632" fill="none" xmlns="http://www.w3.org/2000/svg">
<path fill-rule="evenodd" clip-rule="evenodd" d="M1169 455H829V632H1169V455ZM978.393 467.338C981.274 469.74 982.548 472.543 983.268 477.815H973.517C972.853 475.145 972.077 473.811 970.415 472.743C968.698 471.675 966.648 471.208 963.933 471.208C958.448 471.208 955.18 473.21 955.18 476.547C955.18 479.083 956.62 480.217 960.554 480.684L969.529 481.819C974.293 482.352 976.842 483.086 979.335 484.621C982.714 486.623 984.819 490.761 984.819 495.432C984.819 500.637 982.271 505.308 978.116 507.711C974.57 509.78 970.415 510.647 964.432 510.647C956.897 510.647 951.579 508.912 948.199 505.375C945.595 502.706 944.654 499.77 944.321 493.897H954.016C954.293 496.833 954.958 498.368 956.454 499.77C958.504 501.638 961.052 502.439 964.875 502.439C970.914 502.439 974.404 500.304 974.404 496.633C974.404 493.697 972.576 492.229 968.254 491.695L957.839 490.427C949.75 489.426 945.374 485.022 945.374 477.948C945.374 468.672 952.465 463 963.989 463C969.806 463 975.069 464.602 978.393 467.338ZM860.271 509.045H838V464.535H859.994C866.31 464.535 867.529 464.668 869.689 465.736C872.681 467.137 874.675 471.141 874.675 475.679C874.675 479.75 873.18 482.753 869.911 485.222C874.177 487.424 876.393 491.295 876.393 496.366C876.393 501.171 874.177 505.509 870.797 507.31C868.249 508.712 866.033 509.045 860.271 509.045ZM847.252 473.344V482.152H859.773C863.318 482.152 864.703 480.951 864.703 477.748C864.703 474.545 863.318 473.344 859.773 473.344H847.252ZM847.252 490.027V500.237H859.773C862.376 500.237 863.374 500.037 864.426 499.436C865.645 498.769 866.421 497.1 866.421 495.098C866.421 493.163 865.645 491.495 864.426 490.828C863.374 490.16 862.376 490.027 859.773 490.027H847.252ZM903.452 492.829H892.427V509.045H883.176V464.535H907.275C911.541 464.535 913.923 465.135 916.084 466.737C918.854 468.806 920.571 472.609 920.571 476.747C920.571 482.019 918.355 485.956 914.145 488.025C917.801 489.626 918.909 492.095 919.02 499.036C919.186 504.574 919.463 506.176 920.571 509.045H910.377C909.713 506.576 909.602 505.575 909.657 501.305C909.713 494.831 908.272 492.896 903.452 492.829ZM892.427 473.544V483.821H904.726C906.776 483.821 907.607 483.687 908.438 483.153C909.713 482.352 910.599 480.551 910.599 478.682C910.599 476.814 909.713 475.012 908.438 474.211C907.607 473.677 906.776 473.544 904.726 473.544H892.427ZM937.765 509.045V464.535H928.513V509.045H937.765ZM991.38 509.045H1013.65C1019.41 509.045 1021.63 508.712 1024.18 507.31C1027.56 505.509 1029.77 501.171 1029.77 496.366C1029.77 491.295 1027.56 487.424 1023.29 485.222C1026.56 482.753 1028.06 479.75 1028.06 475.679C1028.06 471.141 1026.06 467.137 1023.07 465.736C1020.91 464.668 1019.69 464.535 1013.37 464.535H991.38V509.045ZM1000.63 482.152V473.344H1013.15C1016.7 473.344 1018.08 474.545 1018.08 477.748C1018.08 480.951 1016.7 482.152 1013.15 482.152H1000.63ZM1000.63 500.237V490.027H1013.15C1015.76 490.027 1016.75 490.16 1017.81 490.828C1019.03 491.495 1019.8 493.163 1019.8 495.098C1019.8 497.1 1019.03 498.769 1017.81 499.436C1016.75 500.037 1015.76 500.237 1013.15 500.237H1000.63ZM1065.65 509.045L1061.94 499.436H1045.54L1042.11 509.045H1031.86L1049.42 464.535H1058.51L1076.01 509.045H1065.65ZM1048.87 490.427H1058.51L1055.73 483.487C1054.68 480.751 1054.18 479.349 1053.46 477.281C1053.3 477.773 1053.16 478.18 1053.03 478.559C1052.61 479.829 1052.28 480.795 1051.3 483.62L1048.87 490.427ZM1119.78 509.045V464.535H1110.8V478.148C1110.8 488.826 1110.91 494.698 1111.08 497.234C1108.81 492.963 1103.65 484.288 1100.16 478.749L1091.19 464.535H1080.11V509.045H1089.08V495.632L1089.08 494.853V494.831C1089.03 481.246 1089.02 480.207 1088.81 476.213C1091.02 480.484 1094.18 486.023 1099.06 493.83L1108.58 509.045H1119.78ZM1162 500.037V509.045H1128.21V464.535H1162V473.544H1137.46V481.085H1159.17V490.093H1137.46V500.037H1162ZM884.913 534.991C884.045 529.719 882.511 526.916 879.041 524.514C875.037 521.778 868.697 520.176 861.69 520.176C847.81 520.176 839.268 525.849 839.268 535.125C839.268 542.198 844.54 546.603 854.283 547.604L866.828 548.871C872.034 549.405 874.236 550.873 874.236 553.81C874.236 557.48 870.032 559.615 862.758 559.615C858.153 559.615 855.084 558.815 852.614 556.946C850.813 555.545 850.012 554.01 849.678 551.074H838C838.4 556.946 839.535 559.882 842.671 562.552C846.742 566.089 853.148 567.824 862.224 567.824C869.431 567.824 874.436 566.956 878.707 564.887C883.712 562.485 886.781 557.814 886.781 552.609C886.781 547.937 884.246 543.8 880.175 541.798C877.172 540.263 874.102 539.529 868.363 538.995L857.553 537.861C852.815 537.393 851.08 536.259 851.08 533.723C851.08 530.387 855.017 528.385 861.623 528.385C864.893 528.385 867.362 528.852 869.431 529.919C871.433 530.987 872.367 532.322 873.168 534.991H884.913ZM917.5 566.222V547.47L937.653 521.711H923.839L912.094 537.794L900.416 521.711H886.603L906.356 547.47V566.222H917.5ZM964.414 566.222H942.193V521.711H964.681C972.823 521.711 977.561 522.779 981.832 525.649C987.504 529.519 990.907 536.192 990.907 543.6C990.907 551.074 987.504 557.814 981.631 561.818C977.227 564.887 971.888 566.222 964.414 566.222ZM953.337 530.72V557.213H964.548C973.624 557.213 978.695 552.408 978.695 543.933C978.695 535.525 973.624 530.72 964.548 530.72H953.337ZM1046.87 566.222V521.711H1036.05V535.325C1036.05 546.002 1036.19 551.874 1036.39 554.41C1033.65 550.139 1027.45 541.464 1023.24 535.925L1012.43 521.711H999.085V566.222H1009.9V552.809L1009.89 552.01V551.998C1009.83 538.422 1009.82 537.382 1009.56 533.39C1012.23 537.66 1016.03 543.199 1021.91 551.007L1033.39 566.222H1046.87ZM1097.73 557.213V566.222H1057.02V521.711H1097.73V530.72H1068.16V538.261H1094.32V547.27H1068.16V557.213H1097.73ZM1132.88 566.222V547.47L1153.04 521.711H1139.22L1127.48 537.794L1115.8 521.711H1101.98L1121.74 547.47V566.222H1132.88ZM980.336 601.143C980.336 587.577 988.131 577.353 998.465 577.353C1009.02 577.353 1016.68 587.444 1016.68 601.477C1016.68 607.625 1014.68 614.107 1011.43 618.317C1008.18 622.594 1003.5 625 998.509 625C988.131 625 980.336 614.776 980.336 601.143ZM1008.53 601.344C1008.53 592.589 1004.21 586.04 998.465 586.04C992.852 586.04 988.487 592.656 988.487 601.143C988.487 609.697 992.852 616.313 998.509 616.313C1004.12 616.313 1008.53 609.697 1008.53 601.344ZM878.64 623.463V578.89H868.841L860.734 604.618L859.888 607.291L859.175 609.697L858.908 610.632C858.596 609.363 857.928 607.091 857.215 604.685L848.886 578.89H838.953V623.463H846.392V599.673C846.392 597.753 846.356 597.126 846.219 594.746L846.169 593.859L846.614 595.329C846.837 595.931 847.06 596.599 847.238 597.2C847.321 597.451 847.401 597.696 847.478 597.936L847.498 597.997C847.576 598.237 847.652 598.474 847.73 598.708C847.816 598.964 847.903 599.218 847.995 599.472L855.656 623.463H862.115L869.375 600.408L870.578 596.599C870.663 596.324 870.738 596.069 870.815 595.812C870.98 595.254 871.15 594.681 871.424 593.859C871.291 595.73 871.246 598.069 871.202 601.477V623.463H878.64ZM912.58 623.463V614.441H892.848V604.484H910.308V595.463H892.848V587.911H912.58V578.89H885.409V623.463H912.58ZM940.929 614.441V623.463H917.99V578.89H925.428V614.441H940.929ZM945.176 623.463H963.082C967.714 623.463 969.496 623.129 971.545 621.726C974.262 619.921 976.044 615.578 976.044 610.766C976.044 605.687 974.262 601.811 970.833 599.606C973.46 597.133 974.663 594.126 974.663 590.05C974.663 585.506 973.06 581.496 970.654 580.093C968.917 579.024 967.937 578.89 962.859 578.89H945.176V623.463ZM952.615 596.532V587.711H962.681C965.532 587.711 966.646 588.914 966.646 592.122C966.646 595.329 965.532 596.532 962.681 596.532H952.615ZM952.615 614.642V604.418H962.681C964.775 604.418 965.576 604.551 966.423 605.219C967.403 605.888 968.026 607.558 968.026 609.496C968.026 611.501 967.403 613.172 966.423 613.84C965.576 614.441 964.775 614.642 962.681 614.642H952.615ZM1045.51 578.89V604.885C1045.51 609.029 1045.2 611.1 1044.39 612.637C1043.28 614.776 1040.65 616.112 1037.58 616.112C1034.46 616.112 1031.88 614.776 1030.72 612.637C1029.92 611.1 1029.61 609.029 1029.61 604.885V578.89H1022.17V605.086C1022.17 612.236 1023.19 616.446 1025.87 619.788C1028.49 623.129 1032.64 625 1037.54 625C1041.95 625 1045.73 623.53 1048.36 620.79C1051.66 617.382 1052.95 612.971 1052.95 605.086V578.89H1045.51ZM1076.01 607.224H1067.15V623.463H1059.71V578.89H1079.08C1082.51 578.89 1084.43 579.491 1086.17 581.095C1088.39 583.167 1089.77 586.976 1089.77 591.119C1089.77 596.398 1087.99 600.341 1084.61 602.413C1087.55 604.017 1088.44 606.489 1088.53 613.439C1088.66 618.986 1088.88 620.589 1089.77 623.463H1081.58C1081.04 620.99 1080.95 619.988 1081 615.711C1081.04 609.229 1079.89 607.291 1076.01 607.224ZM1067.15 587.911V598.203H1077.03C1078.68 598.203 1079.35 598.069 1080.02 597.534C1081.04 596.733 1081.76 594.928 1081.76 593.057C1081.76 591.186 1081.04 589.382 1080.02 588.58C1079.35 588.045 1078.68 587.911 1077.03 587.911H1067.15ZM1128.05 623.463V578.89H1120.84V592.522C1120.84 603.215 1120.92 609.095 1121.06 611.635C1119.23 607.358 1115.09 598.67 1112.28 593.124L1105.07 578.89H1096.16V623.463H1103.37V610.031L1103.37 609.253C1103.33 595.626 1103.33 594.586 1103.15 590.585C1104.93 594.861 1107.47 600.408 1111.39 608.227L1119.05 623.463H1128.05ZM1162 614.441V623.463H1134.83V578.89H1162V587.911H1142.27V595.463H1159.73V604.484H1142.27V614.441H1162Z" fill="white"/>
<g opacity="0.9">
<path d="M4 0H139.073V106.266H49.6264V152.529H123.69V258.795H49.6264V310.68H144.616V416.939H4V0Z" fill="white"/>
<path d="M162.864 0H208.478V310.68H293.827V416.939H162.864V0Z" fill="white"/>
<path d="M308.488 0H443.561V106.266H354.102V152.529H428.178V258.795H354.102V310.68H449.104V416.939H308.488V0Z" fill="white"/>
<path d="M467.364 0H512.978V156.899L559.539 0H621.433L571.833 148.753L624.609 416.939H566.813L533.904 241.917L512.966 311.288V416.939H467.364V0Z" fill="white"/>
<path d="M674.869 106.266H629.43V0H766.446V106.266H720.496V416.939H674.869V106.266Z" fill="white"/>
<path d="M779.886 0H868.324C895.528 0 903.388 5.00612 910.674 25.6314C918.011 45.6559 921.947 78.7606 921.947 120.033C921.947 153.788 919.456 182.545 915.146 199.415C911.409 213.79 907.274 220.048 898.517 226.92C916.404 245.05 918.372 257.551 919.443 364.446C919.805 396.328 919.979 401.327 922.67 416.953H874.888C874.166 400.075 873.991 395.076 873.456 361.943C872.559 275.051 870.765 267.542 851.446 267.542H825.5V416.939H779.886V0ZM855.743 179.405C863.217 179.405 866.48 177.531 868.623 172.532C871.488 165.653 873.269 153.152 873.269 137.525C873.269 107.489 869.159 97.5193 856.105 97.5193H825.5V179.405H855.743Z" fill="white"/>
<path d="M942.325 0H987.939V416.939H942.325V0Z" fill="white"/>
<path d="M1011.69 0H1057.32V156.899L1103.87 0H1165.77L1116.21 148.753L1169 416.939H1111.2L1078.28 241.917L1057.36 311.288V416.939H1011.69V0Z" fill="white"/>
</g>
<path fill-rule="evenodd" clip-rule="evenodd" d="M0 455.294H246.999V506.532H94.3457V516.535H228.019V564.319H94.3457V576.296H253.739V630H0V455.294ZM10 465.295V620H243.739V586.296H84.3457V554.318H218.019V526.535H84.3457V496.531H236.999V465.295H10Z" fill="white"/>
<path fill-rule="evenodd" clip-rule="evenodd" d="M286.77 455.294H533.739V506.532H381.027V516.535H514.7V564.319H381.027V576.296H540.494V630H286.77V455.294ZM296.77 465.295V620H530.494V586.296H371.027V554.318H504.7V526.535H371.027V496.531H523.739V465.295H296.77Z" fill="white"/>
<path fill-rule="evenodd" clip-rule="evenodd" d="M573.539 455.294H670.753V576.296H796V630H573.539V455.294ZM583.539 465.295V620H786V586.296H660.753V465.295H583.539Z" fill="white"/>
</svg>
